<?xml version="1.0" standalone="no"?>
<!DOCTYPE svg PUBLIC "-//W3C//DTD SVG 20010904//EN"
 "http://www.w3.org/TR/2001/REC-SVG-20010904/DTD/svg10.dtd">
<svg version="1.0" xmlns="http://www.w3.org/2000/svg"
 width="608.000000pt" height="145.000000pt" viewBox="0 0 608.000000 145.000000"
 preserveAspectRatio="xMidYMid meet">

<g transform="translate(0.000000,145.000000) scale(0.100000,-0.100000)"
fill="#000000" stroke="none">
<path d="M1825 1353 c-95 -29 -163 -93 -196 -183 -9 -26 -14 -165 -16 -548 -4
-457 -3 -516 12 -538 15 -23 21 -24 113 -24 63 0 102 4 110 12 9 9 12 96 12
330 l0 318 43 0 c24 0 48 5 55 12 7 7 12 44 12 98 0 54 -5 91 -12 98 -7 7 -31
12 -55 12 l-43 0 0 78 c0 91 11 111 66 127 l39 11 3 93 c2 60 -1 98 -9 107
-15 18 -70 17 -134 -3z m105 -98 c0 -68 -2 -75 -20 -75 -11 0 -34 -13 -52 -29
-33 -29 -33 -29 -36 -140 l-4 -111 56 0 56 0 0 -70 0 -70 -55 0 -55 0 0 -330
0 -330 -85 0 -86 0 3 518 c3 503 4 518 24 562 12 25 37 60 57 79 37 35 121 70
170 71 l27 0 0 -75z"/>
<path d="M4106 1338 c-14 -20 -16 -83 -16 -488 0 -405 2 -468 16 -488 14 -20
23 -22 113 -22 62 0 101 4 109 12 8 8 12 63 12 180 0 155 2 170 20 188 26 26
76 26 90 1 6 -11 10 -88 10 -178 0 -207 -3 -203 129 -203 74 0 102 4 111 15 9
10 11 67 8 212 -3 193 -4 200 -31 254 -31 65 -78 102 -150 120 -46 11 -133 8
-169 -6 -17 -7 -18 7 -18 197 0 145 -3 207 -12 216 -8 8 -47 12 -109 12 -90 0
-99 -2 -113 -22z m194 -248 l0 -229 46 24 c94 50 230 24 281 -54 36 -54 43
-96 43 -278 l0 -173 -84 0 -85 0 -3 176 -3 176 -28 24 c-49 42 -119 26 -149
-36 -15 -29 -18 -62 -18 -187 l0 -153 -85 0 -85 0 0 470 0 470 85 0 85 0 0
-230z"/>
<path d="M5746 1338 c-13 -18 -16 -56 -16 -208 l0 -185 -83 -1 c-69 0 -90 -4
-133 -27 -90 -46 -153 -142 -155 -236 -1 -32 -2 -30 -13 19 -36 163 -162 260
-320 248 -160 -13 -271 -123 -283 -281 -11 -134 48 -242 164 -299 61 -30 76
-33 153 -33 76 0 93 3 152 33 66 32 118 80 118 108 0 8 -19 33 -42 54 l-43 40
48 0 c40 0 49 4 57 22 8 22 9 22 9 2 2 -52 36 -121 86 -171 43 -43 65 -55 125
-74 121 -36 264 -15 371 56 l39 25 0 453 c0 339 -3 456 -12 465 -8 8 -47 12
-109 12 -90 0 -99 -2 -113 -22z m192 -455 l-3 -438 -68 -34 c-55 -28 -83 -35
-146 -39 -145 -8 -247 41 -297 144 -73 148 -8 329 135 380 49 18 134 17 176 0
l35 -15 0 220 0 219 85 0 85 0 -2 -437z m-754 -7 c74 -43 115 -112 131 -220
l7 -46 -192 0 -192 0 6 -27 c23 -96 139 -129 227 -64 16 12 32 21 36 21 4 0
26 -16 48 -35 l40 -34 -30 -25 c-115 -97 -287 -101 -394 -10 -66 57 -86 104
-86 204 0 94 13 129 69 188 58 62 114 83 212 78 56 -2 82 -9 118 -30z m-18
-315 c-9 -15 -73 -41 -99 -41 -14 0 -39 11 -54 25 l-28 24 93 1 c51 0 91 -4
88 -9z"/>
<path d="M5633 766 c-100 -45 -93 -212 11 -251 35 -14 51 -15 85 -5 l41 11 0
108 c0 105 -1 109 -25 125 -36 24 -76 28 -112 12z m81 -39 c14 -10 16 -26 14
-97 l-3 -85 -31 -3 c-66 -6 -113 77 -84 149 19 44 69 62 104 36z"/>
<path d="M4979 761 c-53 -53 -43 -61 76 -61 l106 0 -16 29 c-35 68 -115 83
-166 32z m96 -11 c15 -6 9 -9 -25 -9 -34 0 -40 3 -25 9 11 5 22 9 25 9 3 0 14
-4 25 -9z"/>
<path d="M265 1253 c-104 -37 -162 -107 -172 -205 -11 -114 38 -200 172 -300
144 -107 172 -150 120 -184 -35 -23 -70 -11 -122 42 -24 24 -49 44 -54 44 -20
0 -139 -72 -153 -92 -8 -10 -11 -28 -9 -39 10 -38 103 -127 161 -156 50 -24
69 -28 147 -28 82 0 97 3 158 33 72 36 121 92 133 152 9 41 20 38 28 -7 25
-153 227 -223 437 -153 33 11 78 32 100 45 l39 25 0 158 c0 86 -5 173 -10 193
-26 94 -111 154 -232 166 -112 10 -269 -31 -280 -74 -3 -11 5 -46 18 -77 l23
-57 -39 -35 c-37 -33 -53 -66 -63 -124 -2 -14 -5 -2 -6 26 -3 115 -59 199
-199 298 -93 65 -125 98 -120 123 6 31 42 26 87 -12 49 -40 56 -41 92 -17 121
82 133 112 68 174 -91 87 -218 118 -324 81z m213 -47 c36 -18 112 -84 112 -96
0 -4 -22 -26 -50 -49 l-50 -42 -37 29 c-21 17 -48 33 -59 36 -31 9 -72 -10
-86 -39 -20 -44 8 -81 133 -175 138 -104 171 -149 177 -246 6 -85 -16 -142
-71 -189 -129 -110 -365 -72 -449 73 l-18 30 62 36 61 37 42 -41 c64 -63 152
-71 190 -18 38 55 6 112 -111 199 -108 80 -166 143 -182 197 -35 116 8 210
118 262 55 25 165 23 218 -4z m598 -311 c54 -16 106 -62 123 -108 6 -16 11
-98 11 -183 l0 -154 -32 -20 c-65 -40 -129 -55 -228 -55 -105 0 -150 16 -202
72 -83 89 -41 235 79 271 59 18 133 15 176 -7 36 -18 37 -18 37 0 0 10 -11 31
-24 46 -22 26 -30 28 -93 28 -37 0 -80 -3 -95 -8 -23 -6 -29 -3 -41 20 -33 65
-32 70 20 86 26 9 57 18 68 20 45 10 155 6 201 -8z"/>
<path d="M888 600 c-35 -27 -35 -54 -2 -87 23 -23 31 -25 80 -20 68 7 74 11
74 51 0 43 -27 67 -82 73 -34 4 -49 0 -70 -17z m96 -26 c9 -3 16 -15 16 -25 0
-15 -7 -19 -37 -19 -46 0 -68 13 -60 34 6 16 51 22 81 10z"/>
<path d="M1373 1245 c-92 -40 -97 -197 -8 -239 66 -31 152 -11 179 43 21 40
20 116 -1 152 -17 29 -76 59 -116 59 -12 -1 -37 -7 -54 -15z m122 -50 c20 -19
25 -34 25 -74 0 -42 -4 -53 -26 -70 -38 -30 -98 -28 -129 4 -19 18 -25 35 -25
68 0 24 6 50 13 59 35 44 105 51 142 13z"/>
<path d="M2356 1244 c-14 -14 -16 -68 -16 -448 0 -323 3 -435 12 -444 16 -16
210 -16 226 0 8 8 12 59 12 165 0 116 3 153 13 153 6 0 41 -70 77 -156 35 -85
70 -159 76 -165 7 -5 59 -8 119 -7 154 4 153 -1 61 213 l-73 170 43 49 c55 60
79 134 72 221 -10 117 -86 208 -206 245 -86 27 -391 30 -416 4z m402 -39 c114
-34 182 -120 182 -232 0 -91 -32 -158 -99 -207 l-28 -21 77 -180 77 -180 -85
-3 c-47 -2 -91 -1 -97 2 -6 2 -42 76 -79 165 l-68 161 -44 0 -44 0 0 -165 0
-165 -85 0 -85 0 0 420 0 420 163 0 c117 0 178 -4 215 -15z"/>
<path d="M2550 964 l0 -106 74 4 c88 4 126 26 140 80 19 77 -41 128 -151 128
l-63 0 0 -106z m166 41 c39 -52 0 -105 -76 -105 l-50 0 0 66 0 66 56 -4 c40
-3 61 -10 70 -23z"/>
<path d="M3177 935 c-74 -19 -113 -40 -119 -63 -3 -11 5 -45 18 -76 l23 -57
-39 -35 c-95 -86 -79 -246 31 -320 113 -75 312 -66 450 21 l39 25 0 158 c0 86
-5 173 -10 193 -28 102 -115 159 -251 165 -53 2 -105 -2 -142 -11z m229 -40
c54 -16 106 -62 123 -108 6 -16 11 -98 11 -183 l0 -154 -32 -20 c-65 -40 -129
-55 -228 -55 -105 0 -150 16 -202 72 -83 89 -41 235 79 271 59 18 133 15 176
-7 36 -18 37 -18 37 0 0 10 -11 31 -24 46 -22 26 -30 28 -93 28 -37 0 -80 -3
-95 -8 -23 -6 -29 -3 -41 20 -33 65 -32 70 20 86 26 9 57 18 68 20 45 10 155
6 201 -8z"/>
<path d="M3218 600 c-35 -27 -35 -54 -2 -87 23 -23 31 -25 80 -20 68 7 74 11
74 51 0 43 -27 67 -82 73 -34 4 -49 0 -70 -17z m96 -26 c9 -3 16 -15 16 -25 0
-15 -7 -19 -37 -19 -46 0 -68 13 -60 34 6 16 51 22 81 10z"/>
<path d="M3748 936 c-60 -21 -84 -42 -107 -89 -27 -56 -27 -102 2 -157 21 -42
44 -63 149 -134 59 -40 31 -45 -37 -6 l-55 31 -55 -52 c-65 -62 -70 -87 -22
-122 76 -57 117 -72 207 -72 144 0 227 58 238 166 8 85 -29 152 -116 209 l-23
15 45 49 c57 60 61 94 15 127 -65 46 -168 61 -241 35z m182 -48 c52 -27 55
-42 18 -86 l-27 -32 -35 16 c-42 20 -69 13 -64 -18 2 -15 25 -37 68 -65 36
-24 82 -61 103 -83 33 -35 37 -45 37 -92 0 -108 -59 -153 -200 -153 -74 0 -91
3 -131 27 -75 44 -78 53 -34 98 l38 39 36 -24 c53 -35 83 -40 110 -17 35 28
20 56 -57 106 -97 63 -124 95 -129 153 -6 58 23 108 77 135 50 26 135 23 190
-4z"/>
<path d="M1322 928 c-17 -17 -17 -559 0 -576 8 -8 47 -12 109 -12 137 0 129
-18 129 300 0 318 8 300 -129 300 -62 0 -101 -4 -109 -12z m198 -288 l0 -260
-85 0 -85 0 0 260 0 260 85 0 85 0 0 -260z"/>
</g>
</svg>
