<?xml version="1.0" standalone="no"?>
<!DOCTYPE svg PUBLIC "-//W3C//DTD SVG 20010904//EN"
 "http://www.w3.org/TR/2001/REC-SVG-20010904/DTD/svg10.dtd">
<svg version="1.0" xmlns="http://www.w3.org/2000/svg"
 width="85.000000pt" height="85.000000pt" viewBox="0 0 85.000000 85.000000"
 preserveAspectRatio="xMidYMid meet">

<g transform="translate(0.000000,85.000000) scale(0.100000,-0.100000)"
fill="#000000" stroke="none">
<path d="M331 725 c-103 -29 -174 -94 -212 -194 -28 -75 -24 -195 10 -264 69
-143 241 -213 395 -161 64 22 147 100 177 166 35 78 34 202 -2 278 -37 79 -72
115 -142 149 -77 37 -153 46 -226 26z m178 -100 c156 -81 155 -354 -2 -426
-52 -23 -137 -25 -183 -3 -48 23 -99 86 -114 140 -37 132 28 266 148 305 34
10 117 2 151 -16z"/>
</g>
</svg>
